#!OML:ASF X:\für Bonn\!DataBase\2005_08_12_Daniel\c3d\Daniel.ASF
:FULLY-SPECIFIED
:DEGREES
1
root 2.9354 17.6308 17.5977 -4.7387 9.76515 0.763347
lowerback 5.6921 -2.91073 -0.39693
upperback 1.99086 -3.92239 -1.83242
thorax -1.23859 -1.95515 -1.39607
lowerneck 0.523839 0.211059 -1.097
upperneck 9.2837 0.36895 -0.744474
head 2.8544 0.12403 -0.0420215
rclavicle 2.07481e-014 2.0276e-014
rhumerus -54.5409 -6.01352 -91.8888
rradius 74.7817
rwrist -3.14943
rhand -36.4392 31.1416
rfingers 7.12502
rthumb -9.53356 1.37727
lclavicle 2.07481e-014 2.0276e-014
lhumerus -38.7797 38.0657 66.1223
lradius 21.7789
lwrist -30.7828
lhand -10.4867 -5.24838
lfingers 7.12502
lthumb 15.5149 24.1492
rfemur 5.76897 19.3395 20.2066
rtibia 17.8714
rfoot -25.8888 -24.8344
rtoes -12.5219
lfemur 0.415238 -17.8149 -21.3258
ltibia 26.8557
lfoot -22.2499 9.23126
ltoes -13.6588
2
root 2.93451 17.6307 17.5993 -4.75241 9.81526 0.763837
lowerback 5.67471 -2.89606 -0.389847
upperback 1.97988 -3.90295 -1.86297
thorax -1.24237 -1.94543 -1.43322
lowerneck 0.588573 0.193519 -1.12118
upperneck 9.24369 0.341619 -0.70573
head 2.82886 0.111298 -0.0261873
rclavicle 4.93483e-014 2.14687e-014
rhumerus -54.4504 -5.7156 -92.0231
rradius 76.8898
rwrist -3.00856
rhand -36.8668 31.2474
rfingers 7.12502
rthumb -9.94617 1.50234
lclavicle 4.93483e-014 2.14687e-014
lhumerus -38.7798 38.0769 66.1118
lradius 21.7443
lwrist -30.77
lhand -10.5143 -5.28021
lfingers 7.12502
lthumb 15.4883 24.1194
rfemur 5.79952 19.3207 20.22
rtibia 17.8725
rfoot -25.9048 -24.8622
rtoes -12.4659
lfemur 0.429451 -17.8435 -21.3251
ltibia 26.8561
lfoot -22.2555 9.19421
ltoes -13.6121
3
root 2.93349 17.6305 17.6001 -4.75982 9.87074 0.763027
lowerback 5.65722 -2.88311 -0.392267
upperback 1.97093 -3.88611 -1.88303
thorax -1.24268 -1.93703 -1.45422
lowerneck 0.610848 0.16906 -1.14374
upperneck 9.22491 0.307528 -0.68825
head 2.81843 0.0943626 -0.0175338
rclavicle -2.64508e-014 1.19271e-015
rhumerus -54.2941 -5.34742 -92.1236
rradius 78.9851
rwrist -2.80883
rhand -37.3296 31.1853
rfingers 7.12502
rthumb -10.3927 1.46209
lclavicle -2.64508e-014 1.19271e-015
lhumerus -38.7724 38.0757 66.1372
lradius 21.7259
lwrist -30.735
lhand -10.5432 -5.28405
lfingers 7.12502
lthumb 15.4605 24.1177
rfemur 5.82369 19.293 20.2309
rtibia 17.8685
rfoot -25.9291 -24.8835
rtoes -12.456
lfemur 0.426538 -17.8618 -21.3191
ltibia 26.8598
lfoot -22.2475 9.15756
ltoes -13.6158
4
root 2.93318 17.6299 17.6013 -4.77538 9.92389 0.762201
lowerback 5.65015 -2.8704 -0.376071
upperback 1.95768 -3.86902 -1.91517
thorax -1.25525 -1.92849 -1.49727
lowerneck 0.654589 0.152103 -1.19032
upperneck 9.2062 0.280167 -0.626239
head 2.80399 0.0813608 0.00960381
rclavicle -4.21796e-014 -1.66979e-014
rhumerus -54.0443 -4.95906 -92.2127
rradius 81.0781
rwrist -2.56145
rhand -37.7892 30.9198
rfingers 7.12502
rthumb -10.836 1.2193
lclavicle -4.21796e-014 -1.66979e-014
lhumerus -38.7892 38.1461 66.092
lradius 21.6754
lwrist -30.7926
lhand -10.5456 -5.29895
lfingers 7.12502
lthumb 15.4582 24.103
rfemur 5.85904 19.2704 20.2453
rtibia 17.8674
rfoot -25.9604 -24.9049
rtoes -12.4548
lfemur 0.437427 -17.8788 -21.3188
ltibia 26.8615
lfoot -22.2421 9.1232
ltoes -13.6193
5
root 2.93215 17.6296 17.6021 -4.7903 9.97356 0.761478
lowerback 5.64209 -2.85542 -0.378908
upperback 1.94572 -3.84967 -1.93559
thorax -1.26381 -1.91884 -1.51799
lowerneck 0.686903 0.129568 -1.23116
upperneck 9.20066 0.24746 -0.589192
head 2.79623 0.0650194 0.0276683
rclavicle -4.45029e-014 -1.78906e-014
rhumerus -53.6931 -4.52717 -92.2656
rradius 83.1162
rwrist -2.34949
rhand -38.2284 30.5504
rfingers 7.12502
rthumb -11.2595 0.872574
lclavicle -4.45029e-014 -1.78906e-014
lhumerus -38.8169 38.2176 66.0578
lradius 21.6349
lwrist -30.8488
lhand -10.5667 -5.33939
lfingers 7.12502
lthumb 15.4379 24.0641
rfemur 5.8919 19.2725 20.2654
rtibia 17.8631
rfoot -25.9858 -24.9476
rtoes -12.4358
lfemur 0.440667 -17.8904 -21.3144
ltibia 26.8659
lfoot -22.2331 9.0863
ltoes -13.6249
6
root 2.93179 17.6293 17.6029 -4.79414 10.0135 0.774429
lowerback 5.62395 -2.82924 -0.384381
upperback 1.93107 -3.81566 -1.96622
thorax -1.26967 -1.90187 -1.54915
lowerneck 0.725629 0.0995016 -1.26655
upperneck 9.192 0.20397 -0.546321
head 2.7863 0.043712 0.0464226
rclavicle -1.11692e-014 -1.39149e-014
rhumerus -53.2647 -4.12085 -92.2916
rradius 85.0616
rwrist -2.10033
rhand -38.6858 30.2186
rfingers 7.12502
rthumb -11.7007 0.565372
lclavicle -1.11692e-014 -1.39149e-014
lhumerus -38.8461 38.2975 66.0136
lradius 21.5951
lwrist -30.9635
lhand -10.5894 -5.38738
lfingers 7.12502
lthumb 15.416 24.0178
rfemur 5.91447 19.2673 20.2614
rtibia 17.8592
rfoot -26.0131 -24.9721
rtoes -12.4241
lfemur 0.441423 -17.9067 -21.3288
ltibia 26.869
lfoot -22.2288 9.06576
ltoes -13.6273
7
root 2.93074 17.6287 17.6037 -4.81411 10.064 0.785652
lowerback 5.61993 -2.8171 -0.401297
upperback 1.92126 -3.80098 -1.9934
thorax -1.27788 -1.89455 -1.5685
lowerneck 0.771791 0.0795125 -1.29348
upperneck 9.16758 0.174736 -0.519446
head 2.76969 0.0293818 0.0589228
rclavicle 1.06226e-014 -1.03368e-014
rhumerus -52.7439 -3.65012 -92.303
rradius 86.92
rwrist -1.91153
rhand -39.1187 29.8742
rfingers 7.12502
rthumb -12.1182 0.245132
lclavicle 1.06226e-014 -1.03368e-014
lhumerus -38.8879 38.4217 65.9416
lradius 21.5502
lwrist -31.0539
lhand -10.5843 -5.40628
lfingers 7.12502
lthumb 15.4209 23.9985
rfemur 5.95817 19.2591 20.27
rtibia 17.8556
rfoot -26.0473 -25.0043
rtoes -12.4113
lfemur 0.453657 -17.8853 -21.3315
ltibia 26.8711
lfoot -22.2185 8.99693
ltoes -13.6335
8
root 2.92987 17.6284 17.6039 -4.83075 10.1078 0.783201
lowerback 5.62171 -2.7929 -0.39626
upperback 1.90282 -3.76934 -2.0196
thorax -1.29911 -1.87877 -1.59965
lowerneck 0.8237 0.0526828 -1.34123
upperneck 9.16112 0.133564 -0.450452
head 2.75818 0.00958055 0.0881848
rclavicle 4.9075e-014 3.10104e-014
rhumerus -52.0741 -3.20286 -92.2791
rradius 88.5875
rwrist -1.74488
rhand -39.5489 29.6248
rfingers 7.12502
rthumb -12.5329 0.020663
lclavicle 4.9075e-014 3.10104e-014
lhumerus -38.9559 38.5442 65.8558
lradius 21.5005
lwrist -31.2316
lhand -10.5596 -5.45411
lfingers 7.12502
lthumb 15.4447 23.9489
rfemur 5.99089 19.2788 20.2955
rtibia 17.8505
rfoot -26.1006 -25.0553
rtoes -12.3559
lfemur 0.461657 -17.8961 -21.3263
ltibia 26.874
lfoot -22.2119 8.96406
ltoes -13.6367
9
root 2.92874 17.6277 17.6049 -4.8532 10.1394 0.783593
lowerback 5.60545 -2.76373 -0.400005
upperback 1.9036 -3.73097 -2.05275
thorax -1.29023 -1.85957 -1.63506
lowerneck 0.843161 0.0175365 -1.33633
upperneck 9.1574 0.0837875 -0.419819
head 2.75359 -0.013981 0.0960515
rclavicle 7.82715e-016 8.34896e-015
rhumerus -51.195 -2.74713 -92.2349
rradius 90.0172
rwrist -1.60311
rhand -39.9527 29.5077
rfingers 7.12502
rthumb -12.9222 -0.0721626
lclavicle 7.82715e-016 8.34896e-015
lhumerus -38.9817 38.69 65.7724
lradius 21.4293
lwrist -31.3975
lhand -10.5561 -5.4904
lfingers 7.12502
lthumb 15.4481 23.9123
rfemur 6.03911 19.3276 20.33
rtibia 17.8471
rfoot -26.1461 -25.1215
rtoes -12.3279
lfemur 0.483382 -17.8993 -21.3277
ltibia 26.8757
lfoot -22.211 8.93615
ltoes -13.6394
10
root 2.92802 17.6273 17.6055 -4.86102 10.1888 0.783423
lowerback 5.5804 -2.73737 -0.413254
upperback 1.89297 -3.69698 -2.08709
thorax -1.28774 -1.8426 -1.66618
lowerneck 0.927765 -0.018794 -1.28158
upperneck 9.10756 0.0315316 -0.407708
head 2.72149 -0.0373026 0.0893887
rclavicle 2.01269e-015 -2.66371e-014
rhumerus -50.1832 -2.30313 -92.169
rradius 91.28
rwrist -1.51372
rhand -40.2449 29.5085
rfingers 7.12502
rthumb -13.2038 -0.0533225
lclavicle 2.01269e-015 -2.66371e-014
lhumerus -39.0396 38.855 65.6521
lradius 21.3631
lwrist -31.636
lhand -10.5209 -5.54838
lfingers 7.12502
lthumb 15.482 23.8517
rfemur 6.0712 19.3494 20.3502
rtibia 17.8433
rfoot -26.2127 -25.1605
rtoes -12.2584
lfemur 0.483479 -17.909 -21.3224
ltibia 26.8779
lfoot -22.2093 8.89561
ltoes -13.6017
11
root 2.92731 17.6274 17.6057 -4.87641 10.233 0.782204
lowerback 5.57806 -2.71126 -0.440991
upperback 1.87543 -3.66434 -2.10706
thorax -1.30316 -1.82634 -1.67302
lowerneck 0.991175 -0.0483623 -1.24777
upperneck 9.10039 -0.0101386 -0.400369
head 2.70764 -0.0564995 0.0850671
rclavicle 2.94201e-014 2.18663e-014
rhumerus -49.096 -1.85602 -92.0567
rradius 92.4254
rwrist -1.40755
rhand -40.422 29.5098
rfingers 7.12502
rthumb -13.3746 -0.0409574
lclavicle 2.94201e-014 2.18663e-014
lhumerus -39.1397 39.0686 65.5157
lradius 21.3057
lwrist -31.884
lhand -10.4756 -5.56584
lfingers 7.12502
lthumb 15.5256 23.8309
rfemur 6.10266 19.3623 20.3712
rtibia 17.8372
rfoot -26.242 -25.1985
rtoes -12.232
lfemur 0.490555 -17.916 -21.3181
ltibia 26.8801
lfoot -22.2018 8.85916
ltoes -13.6051
